<?xml version="1.0" encoding="UTF-8" standalone="no"?>
<!-- Created by Cary Bass http://commons.wikipedia.com/wiki/User:Bastique on January 20, 2006 -->

<svg
   xmlns:dc="http://purl.org/dc/elements/1.1/"
   xmlns:cc="http://creativecommons.org/ns#"
   xmlns:rdf="http://www.w3.org/1999/02/22-rdf-syntax-ns#"
   xmlns:svg="http://www.w3.org/2000/svg"
   xmlns="http://www.w3.org/2000/svg"
   xmlns:sodipodi="http://sodipodi.sourceforge.net/DTD/sodipodi-0.dtd"
   xmlns:inkscape="http://www.inkscape.org/namespaces/inkscape"
   version="1.1"
   width="600"
   height="525"
   id="svg3069"
   inkscape:version="0.48.2 r9819"
   sodipodi:docname="Biohazard.svg">
  <metadata
     id="metadata3085">
    <rdf:RDF>
      <cc:Work
         rdf:about="">
        <dc:format>image/svg+xml</dc:format>
        <dc:type
           rdf:resource="http://purl.org/dc/dcmitype/StillImage" />
        <dc:title></dc:title>
      </cc:Work>
    </rdf:RDF>
  </metadata>
  <sodipodi:namedview
     pagecolor="#ffffff"
     bordercolor="#666666"
     borderopacity="1"
     objecttolerance="10"
     gridtolerance="10"
     guidetolerance="10"
     inkscape:pageopacity="0"
     inkscape:pageshadow="2"
     inkscape:window-width="1360"
     inkscape:window-height="718"
     id="namedview3083"
     showgrid="false"
     inkscape:zoom="0.95047619"
     inkscape:cx="300"
     inkscape:cy="262.5"
     inkscape:window-x="-8"
     inkscape:window-y="-8"
     inkscape:window-maximized="1"
     inkscape:current-layer="svg3069" />
  <defs
     id="defs3073">
    <path
       d="M 2.8117,-1.046 A 3 3 0 0 1 .5,2.958 V 4.5119 A 10.5 10.5 0 0 1 2,25.3078 V 25.8661 A 15 15 0 0 0 14.7975,8.5433 15 15 0 0 0 23.4007,-11.201 L 22.9172,-10.9218 A 10.5 10.5 0 0 1 4.1574,-1.8229 z M 6.2265,7.825 A 10 10 0 0 1 -6.2265,7.825 9.5 9.5 0 0 0 -8.4021,10.5667 13.5 13.5 0 0 0 8.4021,10.5667 10 10 0 0 0 6.2265,7.825 z"
       id="p"
       transform="scale(10,-10) translate(26,-26)" />
  </defs>
  <g
     id="g3473">
    <path
       d="M 597.6,499.6 313.8,8 C 310.9,3 305.6,0 299.9,0 294.2,0 288.9,3.1 286,8 L 2.2,499.6 c -2.9,5 -2.9,11.1 0,16 2.9,5 8.2,8 13.9,8 h 567.6 c 5.7,0 11,-3.1 13.9,-8 2.9,-5 2.9,-11.1 0,-16 z"
       id="sign_border"
       inkscape:connector-curvature="0" />
    <polygon
       points="43.875,491.5 299.875,48.2 555.875,491.5 "
       id="polygon7"
       style="fill:#ffdc32;fill-opacity:1;stroke:none;overflow:visible"
       transform="matrix(1,0,0,0.99591458,0.125,2.0332437)" />
    <g
       transform="matrix(1.052559,0,0,1.052559,742.41438,-5.005714)"
       id="g2892">
      <path
         sodipodi:type="arc"
         style="fill:#000000;fill-opacity:1;stroke:#000000;stroke-width:0.62514842;stroke-linecap:square;stroke-miterlimit:4;stroke-opacity:0.4;stroke-dasharray:none;stroke-dashoffset:0"
         id="path1995"
         sodipodi:cx="-422.16095"
         sodipodi:cy="417.52725"
         sodipodi:rx="38.151581"
         sodipodi:ry="36.156727"
         d="m -384.00937,417.52725 c 0,19.96881 -17.08104,36.15673 -38.15158,36.15673 -21.07054,0 -38.15158,-16.18792 -38.15158,-36.15673 0,-19.96881 17.08104,-36.15672 38.15158,-36.15672 21.07054,0 38.15158,16.18791 38.15158,36.15672 z"
         transform="matrix(0.943604,0,0,0.995665,-21.96988,1.966567)" />
      <path
         style="fill:#000000;fill-opacity:1;stroke:#000000;stroke-width:0.84159344;stroke-linecap:square;stroke-miterlimit:4;stroke-opacity:1;stroke-dashoffset:0"
         d="m -420.32264,164.9375 c -19.61643,0 -35.40625,16.12539 -35.40625,36.15625 L -445.26014,327.75 c 1.9994,16.38347 3.707,25.66593 10.46875,30.03125 4.41507,2.01148 9.30559,3.15625 14.46875,3.15625 5.13826,0 10.00783,-1.13181 14.40625,-3.125 6.79959,-4.35299 8.52737,-13.64238 10.53125,-30.0625 l 10.46875,-126.65625 c 0,-20.03086 -15.78983,-36.15625 -35.40625,-36.15625 z"
         id="rect1997"
         inkscape:connector-curvature="0" />
    </g>
  </g>
</svg>
